<?xml version="1.0" encoding="UTF-8"?>
<svg xmlns="http://www.w3.org/2000/svg" xmlns:xlink="http://www.w3.org/1999/xlink" width="128pt" height="128pt" viewBox="0 0 128 128" version="1.1">
<g id="surface1">
<rect x="0" y="0" width="128" height="128" style="fill:rgb(100%,100%,100%);fill-opacity:1;stroke:none;"/>
<path style=" stroke:none;fill-rule:evenodd;fill:rgb(0%,40.392157%,54.901961%);fill-opacity:1;" d="M 5.648438 85.140625 L 9.5 85.140625 L 9.5 69.882812 L 15.511719 83.1875 C 16.195312 84.785156 17.171875 85.378906 19.070312 85.378906 C 20.964844 85.378906 21.882812 84.785156 22.59375 83.1875 L 28.582031 69.882812 L 28.582031 85.140625 L 32.460938 85.140625 L 32.460938 69.882812 C 32.460938 68.402344 31.867188 67.691406 30.625 67.304688 C 27.691406 66.417969 25.734375 67.1875 24.847656 69.171875 L 18.953125 82.328125 L 13.261719 69.171875 C 12.402344 67.1875 10.417969 66.417969 7.457031 67.304688 C 6.242188 67.691406 5.648438 68.402344 5.648438 69.882812 Z M 35.660156 72.726562 L 39.542969 72.726562 L 39.542969 81.113281 C 39.511719 81.585938 39.691406 82.652344 41.792969 82.683594 C 42.890625 82.710938 50.148438 82.683594 50.207031 82.683594 L 50.207031 72.667969 L 54.089844 72.667969 L 54.089844 86.386719 C 54.089844 89.761719 49.914062 90.503906 47.957031 90.535156 L 35.75 90.535156 L 35.75 87.957031 L 47.984375 87.957031 C 50.472656 87.6875 50.179688 86.445312 50.179688 86.03125 L 50.179688 85.023438 L 41.972656 85.023438 C 38.148438 84.992188 35.691406 83.304688 35.660156 81.378906 C 35.660156 81.199219 35.75 72.785156 35.660156 72.726562 Z M 118.914062 63.007812 C 116.546875 62.949219 114.707031 63.1875 113.167969 63.839844 C 112.722656 64.019531 112.011719 64.019531 111.953125 64.582031 C 112.191406 64.816406 112.21875 65.203125 112.425781 65.527344 C 112.78125 66.121094 113.40625 66.921875 113.96875 67.335938 C 114.589844 67.808594 115.214844 68.285156 115.863281 68.699219 C 117.019531 69.410156 118.324219 69.824219 119.449219 70.535156 C 120.101562 70.949219 120.75 71.484375 121.402344 71.929688 C 121.730469 72.164062 121.9375 72.550781 122.351562 72.699219 L 122.351562 72.609375 C 122.144531 72.34375 122.085938 71.957031 121.878906 71.660156 C 121.582031 71.367188 121.285156 71.097656 120.988281 70.800781 C 120.128906 69.648438 119.0625 68.640625 117.90625 67.808594 C 116.957031 67.160156 114.886719 66.269531 114.5 65.171875 L 114.441406 65.113281 C 115.09375 65.054688 115.863281 64.816406 116.484375 64.640625 C 117.492188 64.375 118.410156 64.429688 119.449219 64.164062 C 119.921875 64.046875 120.394531 63.898438 120.871094 63.75 L 120.871094 63.484375 C 120.335938 62.949219 119.953125 62.238281 119.390625 61.734375 C 117.878906 60.433594 116.21875 59.160156 114.5 58.09375 C 113.582031 57.5 112.398438 57.113281 111.421875 56.609375 C 111.0625 56.433594 110.472656 56.34375 110.265625 56.046875 C 109.730469 55.398438 109.433594 54.539062 109.050781 53.765625 C 108.191406 52.136719 107.359375 50.328125 106.621094 48.609375 C 106.085938 47.457031 105.761719 46.300781 105.109375 45.234375 C 102.058594 40.195312 98.738281 37.144531 93.644531 34.152344 C 92.546875 33.53125 91.242188 33.265625 89.851562 32.9375 C 89.109375 32.910156 88.371094 32.847656 87.628906 32.820312 C 87.152344 32.613281 86.679688 32.050781 86.265625 31.78125 C 84.578125 30.714844 80.222656 28.40625 78.976562 31.457031 C 78.175781 33.382812 80.160156 35.277344 80.84375 36.257812 C 81.347656 36.9375 81.996094 37.707031 82.355469 38.476562 C 82.5625 38.980469 82.621094 39.515625 82.828125 40.046875 C 83.300781 41.351562 83.746094 42.804688 84.367188 44.019531 C 84.695312 44.640625 85.050781 45.292969 85.464844 45.855469 C 85.703125 46.183594 86.117188 46.332031 86.203125 46.863281 C 85.789062 47.457031 85.761719 48.34375 85.523438 49.085938 C 84.457031 52.433594 84.871094 56.582031 86.382812 59.039062 C 86.855469 59.78125 87.984375 61.410156 89.496094 60.789062 C 90.828125 60.253906 90.53125 58.566406 90.917969 57.085938 C 91.003906 56.730469 90.945312 56.492188 91.125 56.253906 L 91.125 56.316406 C 91.539062 57.144531 91.953125 57.945312 92.339844 58.773438 C 93.257812 60.226562 94.855469 61.738281 96.191406 62.746094 C 96.902344 63.277344 97.464844 64.195312 98.351562 64.523438 L 98.351562 64.433594 L 98.292969 64.433594 C 98.117188 64.167969 97.847656 64.046875 97.613281 63.839844 C 97.078125 63.308594 96.488281 62.65625 96.070312 62.0625 C 94.828125 60.402344 93.730469 58.566406 92.753906 56.671875 C 92.28125 55.75 91.863281 54.746094 91.480469 53.824219 C 91.300781 53.46875 91.300781 52.9375 91.003906 52.757812 C 90.5625 53.410156 89.910156 53.976562 89.582031 54.773438 C 89.019531 56.046875 88.960938 57.617188 88.753906 59.246094 C 88.632812 59.277344 88.695312 59.246094 88.632812 59.308594 C 87.6875 59.070312 87.359375 58.09375 87.003906 57.261719 C 86.117188 55.160156 85.96875 51.78125 86.738281 49.351562 C 86.945312 48.730469 87.835938 46.773438 87.480469 46.183594 C 87.300781 45.617188 86.710938 45.292969 86.382812 44.847656 C 86 44.285156 85.585938 43.574219 85.316406 42.953125 C 84.605469 41.292969 84.25 39.457031 83.480469 37.796875 C 83.125 37.027344 82.503906 36.226562 82 35.515625 C 81.433594 34.714844 80.816406 34.152344 80.371094 33.207031 C 80.222656 32.878906 80.015625 32.347656 80.25 31.992188 C 80.308594 31.753906 80.429688 31.664062 80.664062 31.605469 C 81.050781 31.28125 82.148438 31.695312 82.53125 31.871094 C 83.628906 32.316406 84.546875 32.730469 85.464844 33.351562 C 85.878906 33.648438 86.324219 34.210938 86.859375 34.359375 L 87.480469 34.359375 C 88.429688 34.566406 89.496094 34.417969 90.382812 34.6875 C 91.953125 35.191406 93.375 35.929688 94.652344 36.730469 C 98.53125 39.191406 101.730469 42.6875 103.894531 46.863281 C 104.25 47.542969 104.398438 48.167969 104.722656 48.878906 C 105.347656 50.332031 106.117188 51.8125 106.738281 53.234375 C 107.359375 54.625 107.953125 56.046875 108.84375 57.203125 C 109.285156 57.828125 111.0625 58.152344 111.863281 58.476562 C 112.457031 58.742188 113.375 58.980469 113.910156 59.308594 C 114.917969 59.929688 115.921875 60.640625 116.871094 61.320312 C 117.34375 61.675781 118.828125 62.417969 118.914062 63.007812 Z M 118.914062 63.007812 "/>
<path style=" stroke:none;fill-rule:evenodd;fill:rgb(0%,40.392157%,54.901961%);fill-opacity:1;" d="M 88.695312 37.261719 C 88.191406 37.261719 87.835938 37.320312 87.480469 37.410156 L 87.480469 37.46875 L 87.539062 37.46875 C 87.777344 37.945312 88.191406 38.269531 88.488281 38.683594 C 88.726562 39.160156 88.933594 39.632812 89.167969 40.105469 L 89.226562 40.046875 C 89.644531 39.75 89.851562 39.277344 89.851562 38.566406 C 89.671875 38.359375 89.644531 38.152344 89.496094 37.945312 C 89.316406 37.648438 88.933594 37.5 88.695312 37.261719 Z M 88.695312 37.261719 "/>
<path style=" stroke:none;fill-rule:evenodd;fill:rgb(80.784314%,54.509804%,17.254902%);fill-opacity:1;" d="M 57.050781 85.140625 L 68.191406 85.140625 C 69.496094 85.140625 70.742188 84.875 71.75 84.402344 C 73.4375 83.628906 74.238281 82.59375 74.238281 81.230469 L 74.238281 78.386719 C 74.238281 77.292969 73.320312 76.253906 71.484375 75.542969 C 70.535156 75.1875 69.347656 74.980469 68.195312 74.980469 L 63.511719 74.980469 C 61.941406 74.980469 61.203125 74.503906 60.992188 73.46875 C 60.964844 73.351562 60.964844 73.230469 60.964844 73.113281 L 60.964844 71.367188 C 60.964844 71.277344 60.964844 71.160156 60.992188 71.039062 C 61.199219 70.238281 61.617188 70.03125 62.980469 69.886719 L 74.386719 69.886719 L 74.386719 67.304688 L 63.542969 67.304688 C 61.96875 67.304688 61.140625 67.394531 60.402344 67.632812 C 58.121094 68.34375 57.113281 69.46875 57.113281 71.453125 L 57.113281 73.707031 C 57.113281 75.453125 59.066406 76.9375 62.386719 77.292969 C 62.742188 77.320312 63.125 77.320312 63.511719 77.320312 L 67.511719 77.320312 C 67.660156 77.320312 67.808594 77.320312 67.925781 77.351562 C 69.140625 77.46875 69.671875 77.675781 70.027344 78.121094 C 70.265625 78.359375 70.324219 78.566406 70.324219 78.832031 L 70.324219 81.085938 C 70.324219 81.351562 70.148438 81.707031 69.792969 82.003906 C 69.4375 82.296875 68.871094 82.503906 68.132812 82.535156 C 67.984375 82.535156 67.898438 82.566406 67.746094 82.566406 L 57.050781 82.566406 Z M 98.351562 80.667969 C 98.351562 83.304688 100.339844 84.785156 104.308594 85.082031 C 104.695312 85.113281 105.050781 85.140625 105.433594 85.140625 L 115.507812 85.140625 L 115.507812 82.5625 L 105.347656 82.5625 C 103.09375 82.5625 102.234375 82 102.234375 80.636719 L 102.234375 67.304688 L 98.351562 67.304688 Z M 76.695312 80.785156 L 76.695312 71.601562 C 76.695312 69.261719 78.355469 67.839844 81.585938 67.394531 C 81.941406 67.363281 82.296875 67.335938 82.621094 67.335938 L 89.96875 67.335938 C 90.355469 67.335938 90.679688 67.363281 91.066406 67.394531 C 94.292969 67.839844 95.921875 69.261719 95.921875 71.601562 L 95.921875 80.785156 C 95.921875 82.683594 95.242188 83.691406 93.640625 84.371094 L 97.433594 87.808594 L 92.960938 87.808594 L 89.878906 85.023438 L 86.769531 85.203125 L 82.621094 85.203125 C 81.9375 85.203125 81.167969 85.113281 80.367188 84.90625 C 77.910156 84.222656 76.695312 82.917969 76.695312 80.785156 Z M 80.871094 80.578125 C 80.871094 80.699219 80.933594 80.816406 80.960938 80.964844 C 81.167969 82.03125 82.175781 82.625 83.71875 82.625 L 87.214844 82.625 L 84.015625 79.71875 L 88.488281 79.71875 L 91.300781 82.269531 C 91.835938 81.972656 92.160156 81.558594 92.28125 81.023438 C 92.308594 80.90625 92.308594 80.757812 92.308594 80.636719 L 92.308594 71.839844 C 92.308594 71.71875 92.308594 71.601562 92.28125 71.484375 C 92.074219 70.476562 91.066406 69.914062 89.554688 69.914062 L 83.71875 69.914062 C 82 69.914062 80.871094 70.65625 80.871094 71.839844 Z M 117.285156 85.171875 L 117.851562 85.171875 L 117.851562 83.007812 L 118.589844 83.007812 L 118.589844 82.5625 L 116.515625 82.5625 L 116.515625 83.007812 L 117.285156 83.007812 Z M 121.582031 85.171875 L 122.117188 85.171875 L 122.117188 82.5625 L 121.316406 82.5625 L 120.664062 84.34375 L 119.953125 82.5625 L 119.183594 82.5625 L 119.183594 85.171875 L 119.6875 85.171875 L 119.6875 83.1875 L 119.71875 83.1875 L 120.457031 85.171875 L 120.84375 85.171875 L 121.582031 83.1875 Z M 121.582031 85.171875 "/>
</g>
</svg>
