<?xml version="1.0" encoding="UTF-8"?>
<svg xmlns="http://www.w3.org/2000/svg" xmlns:xlink="http://www.w3.org/1999/xlink" width="128pt" height="128pt" viewBox="0 0 128 128" version="1.1">
<g id="surface1">
<path style=" stroke:none;fill-rule:nonzero;fill:rgb(38.039216%,85.490196%,98.431373%);fill-opacity:1;" d="M 128 64.011719 C 128 56.570312 117.382812 49.519531 101.101562 45.144531 C 104.859375 30.582031 103.1875 18.996094 95.832031 15.285156 C 94.132812 14.417969 92.152344 14.003906 89.984375 14.003906 L 89.984375 19.109375 C 91.1875 19.109375 92.152344 19.316406 92.960938 19.707031 C 96.507812 21.492188 98.046875 28.292969 96.847656 37.039062 C 96.5625 39.191406 96.089844 41.457031 95.515625 43.769531 C 90.402344 42.671875 84.820312 41.824219 78.949219 41.273438 C 75.425781 37.039062 71.773438 33.191406 68.097656 29.828125 C 76.601562 22.886719 84.585938 19.085938 90.011719 19.085938 L 90.011719 13.980469 C 82.835938 13.980469 73.445312 18.46875 63.949219 26.253906 C 54.449219 18.515625 45.058594 14.074219 37.882812 14.074219 L 37.882812 19.179688 C 43.285156 19.179688 51.292969 22.957031 59.800781 29.847656 C 56.148438 33.214844 52.492188 37.039062 49.023438 41.273438 C 43.128906 41.824219 37.542969 42.671875 32.429688 43.792969 C 31.832031 41.503906 31.386719 39.28125 31.074219 37.152344 C 29.847656 28.40625 31.359375 21.605469 34.882812 19.796875 C 35.664062 19.386719 36.683594 19.203125 37.882812 19.203125 L 37.882812 14.097656 C 35.691406 14.097656 33.707031 14.507812 31.988281 15.378906 C 24.65625 19.085938 23.011719 30.652344 26.796875 45.167969 C 10.566406 49.5625 0 56.59375 0 64.011719 C 0 71.453125 10.617188 78.503906 26.898438 82.878906 C 23.140625 97.441406 24.8125 109.027344 32.167969 112.734375 C 33.867188 113.605469 35.847656 114.019531 38.039062 114.019531 C 45.214844 114.019531 54.605469 109.53125 64.105469 101.746094 C 73.601562 109.484375 82.992188 113.925781 90.167969 113.925781 C 92.359375 113.925781 94.34375 113.515625 96.066406 112.644531 C 103.398438 108.933594 105.039062 97.371094 101.257812 82.855469 C 117.433594 78.480469 128 71.429688 128 64.011719 Z M 94.03125 48.738281 C 93.066406 51.691406 91.863281 54.738281 90.507812 57.785156 C 89.4375 55.953125 88.316406 54.121094 87.089844 52.289062 C 85.890625 50.457031 84.613281 48.671875 83.332031 46.929688 C 87.039062 47.410156 90.613281 48.007812 94.03125 48.738281 Z M 82.082031 73.125 C 80.046875 76.214844 77.957031 79.144531 75.792969 81.871094 C 71.90625 82.167969 67.964844 82.328125 64 82.328125 C 60.058594 82.328125 56.121094 82.167969 52.257812 81.894531 C 50.09375 79.167969 47.980469 76.261719 45.945312 73.191406 C 43.960938 70.195312 42.164062 67.148438 40.519531 64.082031 C 42.136719 61.011719 43.960938 57.945312 45.917969 54.945312 C 47.953125 51.851562 50.042969 48.921875 52.207031 46.199219 C 56.09375 45.898438 60.035156 45.738281 64 45.738281 C 67.941406 45.738281 71.878906 45.898438 75.742188 46.175781 C 77.90625 48.898438 80.019531 51.808594 82.054688 54.875 C 84.039062 57.875 85.835938 60.921875 87.480469 63.988281 C 85.835938 67.058594 84.039062 70.125 82.082031 73.125 Z M 90.507812 70.148438 C 91.917969 73.214844 93.117188 76.285156 94.109375 79.261719 C 90.691406 79.992188 87.089844 80.613281 83.359375 81.09375 C 84.636719 79.328125 85.917969 77.519531 87.117188 75.667969 C 88.316406 73.835938 89.4375 71.980469 90.507812 70.148438 Z M 64.050781 94.578125 C 61.625 92.382812 59.199219 89.929688 56.800781 87.25 C 59.148438 87.34375 61.546875 87.414062 63.972656 87.414062 C 66.425781 87.414062 68.851562 87.367188 71.226562 87.25 C 68.878906 89.929688 66.453125 92.382812 64.050781 94.578125 Z M 44.640625 81.09375 C 40.9375 80.613281 37.363281 80.015625 33.945312 79.285156 C 34.910156 76.328125 36.109375 73.285156 37.464844 70.238281 C 38.535156 72.070312 39.65625 73.902344 40.882812 75.734375 C 42.109375 77.566406 43.363281 79.351562 44.640625 81.09375 Z M 63.921875 33.445312 C 66.347656 35.640625 68.773438 38.09375 71.175781 40.769531 C 68.828125 40.679688 66.425781 40.609375 64 40.609375 C 61.546875 40.609375 59.121094 40.65625 56.746094 40.769531 C 59.09375 38.09375 61.519531 35.640625 63.921875 33.445312 Z M 44.613281 46.929688 C 43.335938 48.691406 42.058594 50.503906 40.859375 52.355469 C 39.65625 54.1875 38.535156 56.019531 37.464844 57.851562 C 36.058594 54.785156 34.855469 51.714844 33.867188 48.738281 C 37.285156 48.03125 40.882812 47.410156 44.613281 46.929688 Z M 21.003906 75.597656 C 11.765625 72.140625 5.792969 67.605469 5.792969 64.011719 C 5.792969 60.417969 11.765625 55.859375 21.003906 52.425781 C 23.246094 51.578125 25.699219 50.824219 28.230469 50.113281 C 29.71875 54.601562 31.675781 59.273438 34.101562 64.058594 C 31.699219 68.820312 29.769531 73.46875 28.308594 77.933594 C 25.726562 77.222656 23.273438 76.445312 21.003906 75.597656 Z M 35.039062 108.316406 C 31.492188 106.53125 29.953125 99.730469 31.152344 90.984375 C 31.4375 88.832031 31.910156 86.566406 32.484375 84.253906 C 37.597656 85.351562 43.179688 86.199219 49.050781 86.75 C 52.574219 90.984375 56.226562 94.832031 59.902344 98.195312 C 51.398438 105.132812 43.414062 108.933594 37.988281 108.933594 C 36.8125 108.914062 35.820312 108.707031 35.039062 108.316406 Z M 96.925781 90.871094 C 98.152344 99.617188 96.640625 106.417969 93.117188 108.226562 C 92.335938 108.636719 91.316406 108.820312 90.117188 108.820312 C 84.714844 108.820312 76.707031 105.042969 68.199219 98.152344 C 71.851562 94.785156 75.507812 90.960938 78.976562 86.726562 C 84.871094 86.175781 90.457031 85.328125 95.570312 84.207031 C 96.167969 86.519531 96.640625 88.742188 96.925781 90.871094 Z M 106.972656 75.597656 C 104.726562 76.445312 102.273438 77.199219 99.742188 77.910156 C 98.257812 73.421875 96.300781 68.75 93.875 63.964844 C 96.273438 59.203125 98.203125 54.554688 99.664062 50.089844 C 102.25 50.800781 104.703125 51.578125 106.996094 52.425781 C 116.234375 55.882812 122.207031 60.417969 122.207031 64.011719 C 122.183594 67.605469 116.207031 72.164062 106.972656 75.597656 Z M 106.972656 75.597656 "/>
<path style=" stroke:none;fill-rule:nonzero;fill:rgb(38.039216%,85.490196%,98.431373%);fill-opacity:1;" d="M 75.898438 64.011719 C 75.898438 69.789062 70.558594 74.476562 63.972656 74.476562 C 57.390625 74.476562 52.050781 69.789062 52.050781 64.011719 C 52.050781 58.230469 57.390625 53.546875 63.972656 53.546875 C 70.558594 53.546875 75.898438 58.230469 75.898438 64.011719 Z M 75.898438 64.011719 "/>
</g>
</svg>
