<?xml version="1.0" encoding="UTF-8"?>
<svg xmlns="http://www.w3.org/2000/svg" xmlns:xlink="http://www.w3.org/1999/xlink" width="128pt" height="128pt" viewBox="0 0 128 128" version="1.1">
<g id="surface1">
<path style=" stroke:none;fill-rule:nonzero;fill:rgb(42.745098%,70.196078%,24.705882%);fill-opacity:1;" d="M 116.53125 7.449219 C 114.753906 11.714844 112.449219 15.746094 109.675781 19.445312 C 93.511719 2.71875 69.535156 -3.894531 47.082031 2.171875 C 24.628906 8.242188 7.246094 26.03125 1.703125 48.621094 C -3.835938 71.210938 3.335938 95.027344 20.433594 110.796875 L 22.804688 112.90625 C 41.167969 128.390625 66.667969 132.253906 88.789062 122.90625 C 110.914062 113.554688 125.914062 92.574219 127.605469 68.613281 C 129.449219 52.53125 124.574219 31.96875 116.53125 7.449219 Z M 29.660156 111.324219 C 27.769531 113.648438 24.347656 114.003906 22.023438 112.109375 C 19.695312 110.21875 19.339844 106.800781 21.230469 104.472656 C 23.121094 102.144531 26.539062 101.789062 28.871094 103.679688 C 31.140625 105.601562 31.488281 108.976562 29.660156 111.324219 Z M 116.136719 92.210938 C 100.449219 113.171875 66.703125 106.050781 45.214844 107.105469 C 45.214844 107.105469 41.390625 107.371094 37.570312 107.898438 C 37.570312 107.898438 39.019531 107.238281 40.863281 106.578125 C 56.023438 101.304688 63.144531 100.25 72.371094 95.503906 C 89.640625 86.671875 106.910156 67.296875 110.335938 47.257812 C 103.746094 66.503906 83.707031 83.113281 65.515625 89.835938 C 52.992188 94.449219 30.449219 98.933594 30.449219 98.933594 L 29.527344 98.40625 C 14.238281 90.890625 13.710938 57.671875 41.65625 46.996094 C 53.914062 42.25 65.515625 44.886719 78.828125 41.722656 C 92.933594 38.425781 109.28125 27.878906 115.871094 14.039062 C 123.253906 36.316406 132.21875 70.855469 116.136719 92.210938 Z M 116.136719 92.210938 "/>
</g>
</svg>
